<svg version="1.2" viewBox="0 0 300 80" xmlns="http://www.w3.org/2000/svg" fill="#0ea5e9">
<path d="m41.293 59.454h-15.94v18.515h-24.523v-76.635h38.624q26.363 0 26.363 28.324 0 15.572-6.8666 23.052-2.575 2.8202-7.1117 4.782-4.5368 1.9618-10.545 1.9618zm-15.94-38.501v18.883h5.6403q4.4141 0 6.4374-0.91963 2.0231-0.91963 2.0231-4.2303v-8.5831q0-3.3106-2.0231-4.2303t-6.4374-0.91963z" stroke-width=".12262"/>
<path d="m101.39 14.58q29.428 0 29.428 20.231v42.915h-12.262l-6.9891-6.9891q-3.5559 4.169-9.6867 6.4987-6.1308 2.3297-11.587 2.3297-5.4565 0-8.7671-0.85831-3.3106-0.85832-6.4987-2.9428-6.9891-4.4143-6.9891-16.431 0-22.071 33.351-22.071h4.9046v-4.4141q-3.9237-0.24523-6.4987-0.24523-13.856 0-23.787 3.3106l-2.9428-17.534q12.262-3.8011 28.324-3.8011zm-8.5831 42.057v5.0273h5.0273q5.3952 0 6.9279-1.2262 1.5327-1.2262 1.5327-3.188v-5.7629h-5.0273q-4.4142 0-6.4374 0.91963-2.0231 0.91963-2.0231 4.2303z" stroke-width=".12262"/>
<path d="m138.91 16.661h12.262l6.7438 6.8666q7.2344-6.6213 18.147-8.7058l1.4714 23.175q-2.9428 0.12262-7.6636 1.4714-4.7207 1.3488-6.4374 3.4332v35.069h-24.523z" stroke-width=".12262"/>
<path d="m230.5 59.334 1.4714 17.657q-6.3761 2.575-16.431 2.575-17.167 0-24.83-8.0313-7.6635-8.0313-7.6635-24.462 0-16.431 7.6635-24.462 7.6636-8.0313 24.83-8.0313 10.668 0 16.431 2.575l-2.9428 16.676q-6.4987-1.3488-10.3-1.3488-9.3188 0-9.3188 6.4987v21.949q3.5559 0.7357 9.1349 0.7357 5.579 0 11.955-2.3297z" stroke-width=".12262"/>
<path d="m242.59 71.534q-7.6636-8.0313-7.6636-24.462 0-16.431 7.6636-24.462 7.6636-8.0313 24.83-8.0313 17.167 0 24.83 8.0313 7.6636 8.0313 7.6636 24.462 0 16.431-7.6636 24.462-7.6636 8.0313-24.83 8.0313-17.167 0-24.83-8.0313zm18.7-33.904v24.033h3.8011q4.4142 0 6.4374-0.91963 2.0231-0.91963 2.0231-4.2303v-24.033h-3.8011q-4.4143 0-6.4374 0.91963-2.0231 0.91963-2.0231 4.2303z" stroke-width=".12262"/>
</svg>
